<svg xmlns="http://www.w3.org/2000/svg" viewBox="0 0 800 460" width="800" height="460" font-family="ui-monospace, SFMono-Regular, Menlo, Monaco, 'Courier New', monospace">
  <defs>
    <style>
      .bg     { fill: #0d1117; }
      .panel  { fill: #161b22; }
      .text   { fill: #c9d1d9; font-size: 13px; }
      .dim    { fill: #6e7681; font-size: 12px; }
      .label  { fill: #8b949e; font-size: 12px; }
      .accent { fill: #ff2d70; font-size: 13px; font-weight: 700; }
      .ok     { fill: #56d364; font-size: 13px; }
      .warn   { fill: #f0883e; font-size: 13px; }
      .cool   { fill: #58a6ff; font-size: 13px; }
      .small  { font-size: 11px; }
      .bar-bg { fill: #21262d; }
      .grid   { stroke: #21262d; stroke-width: 1; }
      .border { stroke: #30363d; stroke-width: 1; fill: none; }

      @keyframes blink { 0%, 49% { opacity: 1; } 50%, 100% { opacity: 0; } }
      .cursor { animation: blink 1s steps(1) infinite; fill: #ff2d70; }

      @keyframes dot1 { 0%, 33%, 100% { opacity: 0.2; } 16% { opacity: 1; } }
      @keyframes dot2 { 0%, 49%, 100% { opacity: 0.2; } 32% { opacity: 1; } }
      @keyframes dot3 { 0%, 66%, 100% { opacity: 0.2; } 49% { opacity: 1; } }
      .d1 { animation: dot1 1.4s linear infinite; }
      .d2 { animation: dot2 1.4s linear infinite; }
      .d3 { animation: dot3 1.4s linear infinite; }
    </style>

    <!-- gradient for bars -->
    <linearGradient id="barFill" x1="0" y1="0" x2="1" y2="0">
      <stop offset="0%" stop-color="#ff2d70"/>
      <stop offset="100%" stop-color="#a371f7"/>
    </linearGradient>
    <linearGradient id="okFill" x1="0" y1="0" x2="1" y2="0">
      <stop offset="0%" stop-color="#56d364"/>
      <stop offset="100%" stop-color="#58a6ff"/>
    </linearGradient>

    <!-- clip path for the scrolling loss curve -->
    <clipPath id="lossClip">
      <rect x="0" y="0" width="320" height="24"/>
    </clipPath>
  </defs>

  <!-- background -->
  <rect class="bg" width="800" height="460" rx="10"/>

  <!-- title bar -->
  <rect class="panel" x="0" y="0" width="800" height="36" rx="10"/>
  <rect class="panel" x="0" y="20" width="800" height="16"/>
  <circle cx="22" cy="18" r="6" fill="#ff5f56"/>
  <circle cx="42" cy="18" r="6" fill="#ffbd2e"/>
  <circle cx="62" cy="18" r="6" fill="#27c93f"/>
  <text x="400" y="22" class="dim" text-anchor="middle">adeel@gpu-cluster: nvidia-smi --loop</text>
  <line class="grid" x1="0" y1="36" x2="800" y2="36"/>

  <!-- header line -->
  <text x="20" y="62" class="label">NVIDIA-SMI 555.42</text>
  <text x="200" y="62" class="label">Driver: 555.42</text>
  <text x="340" y="62" class="label">CUDA: 12.5</text>
  <text x="780" y="62" class="ok small" text-anchor="end">● live</text>
  <line class="grid" x1="20" y1="74" x2="780" y2="74"/>

  <!-- GPU identity -->
  <text x="20" y="100" class="label">GPU 0</text>
  <text x="80" y="100" class="accent">Adeel</text>
  <text x="200" y="100" class="label">PCI 00:01.0</text>
  <text x="360" y="100" class="label">Compute Mode:</text>
  <text x="475" y="100" class="text">Default</text>
  <text x="780" y="100" class="dim small" text-anchor="end">persistence: ON</text>

  <!-- ====== METRICS COLUMN ====== -->
  <!-- Temp -->
  <text x="20" y="135" class="label">Temp</text>
  <text x="120" y="135" class="warn">62°C</text>
  <rect class="bar-bg" x="180" y="125" width="240" height="12" rx="2"/>
  <rect x="180" y="125" height="12" rx="2" fill="url(#barFill)" width="120">
    <animate attributeName="width" values="115;125;130;120;115" dur="8s" repeatCount="indefinite"/>
  </rect>

  <!-- Power -->
  <text x="20" y="160" class="label">Power</text>
  <text x="120" y="160" class="warn">180 W / 250 W</text>
  <rect class="bar-bg" x="280" y="150" width="140" height="12" rx="2"/>
  <rect x="280" y="150" height="12" rx="2" fill="url(#barFill)" width="100">
    <animate attributeName="width" values="95;105;112;100;95" dur="6s" repeatCount="indefinite"/>
  </rect>

  <!-- Memory -->
  <text x="20" y="185" class="label">Memory</text>
  <text x="120" y="185" class="cool">9216 MiB / 12288 MiB</text>
  <rect class="bar-bg" x="280" y="175" width="140" height="12" rx="2"/>
  <rect x="280" y="175" height="12" rx="2" fill="url(#okFill)" width="105"/>

  <!-- GPU Util (animated value, cycling) -->
  <text x="20" y="210" class="label">GPU-Util</text>
  <g>
    <text x="120" y="210" class="accent" opacity="0">
      <animate attributeName="opacity" values="1;1;0;0;0;0;0" keyTimes="0;0.166;0.167;1;1;1;1" dur="10.5s" repeatCount="indefinite"/>
      94 %
    </text>
    <text x="120" y="210" class="accent" opacity="0">
      <animate attributeName="opacity" values="0;0;1;1;0;0;0" keyTimes="0;0.166;0.167;0.333;0.334;1;1" dur="10.5s" repeatCount="indefinite"/>
      96 %
    </text>
    <text x="120" y="210" class="accent" opacity="0">
      <animate attributeName="opacity" values="0;0;0;0;1;1;0;0;0" keyTimes="0;0.166;0.167;0.333;0.334;0.5;0.501;1;1" dur="10.5s" repeatCount="indefinite"/>
      91 %
    </text>
    <text x="120" y="210" class="accent" opacity="0">
      <animate attributeName="opacity" values="0;0;0;0;0;0;1;1;0;0" keyTimes="0;0.166;0.167;0.333;0.334;0.5;0.501;0.666;0.667;1" dur="10.5s" repeatCount="indefinite"/>
      88 %
    </text>
    <text x="120" y="210" class="accent" opacity="0">
      <animate attributeName="opacity" values="0;0;0;0;0;0;0;0;1;1" keyTimes="0;0.166;0.167;0.333;0.334;0.5;0.501;0.666;0.667;1" dur="10.5s" repeatCount="indefinite"/>
      93 %
    </text>
  </g>
  <rect class="bar-bg" x="180" y="200" width="240" height="12" rx="2"/>
  <rect x="180" y="200" height="12" rx="2" fill="url(#barFill)" width="225">
    <animate attributeName="width" values="225;230;218;212;223" dur="10.5s" repeatCount="indefinite"/>
  </rect>

  <!-- ====== RIGHT COLUMN: training loss sparkline ====== -->
  <text x="450" y="135" class="label">training loss · last 60s</text>
  <text x="780" y="135" class="ok small" text-anchor="end">↓ 0.0247</text>
  <rect class="panel" x="450" y="145" width="320" height="64" rx="4"/>

  <g transform="translate(450, 145)">
    <g clip-path="url(#lossClip)">
      <!-- The polyline is wider than the clip; it scrolls left to give a flowing-curve effect -->
      <polyline fill="none" stroke="url(#barFill)" stroke-width="2" stroke-linejoin="round"
        points="0,8 12,12 24,18 36,14 48,20 60,16 72,11 84,15 96,9 108,13 120,7 132,12 144,6 156,10 168,5 180,9 192,4 204,8 216,3 228,7 240,6 252,4 264,8 276,5 288,3 300,7 312,4 324,6 336,3 348,5 360,2 372,4 384,1 396,3 408,2 420,5 432,3 444,1 456,4 468,2 480,1 492,3 504,2 516,1 528,3 540,2 552,4 564,2 576,1 588,3 600,2 612,1 624,2">
        <animateTransform attributeName="transform" type="translate"
          from="0 0" to="-300 0" dur="20s" repeatCount="indefinite"/>
      </polyline>
    </g>
    <!-- baseline -->
    <line x1="0" y1="22" x2="320" y2="22" stroke="#21262d" stroke-width="1"/>
  </g>

  <!-- ====== PROCESSES ====== -->
  <line class="grid" x1="20" y1="240" x2="780" y2="240"/>
  <text x="20" y="262" class="label">Processes</text>
  <text x="780" y="262" class="dim small" text-anchor="end">4 active · 1 background</text>

  <!-- Process 1: training_loop.py — fills 0→100% looping -->
  <text x="20"  y="290" class="dim small">1337</text>
  <text x="60"  y="290" class="text">training_loop.py</text>
  <text x="245" y="290" class="dim small">
    <tspan class="d1">.</tspan><tspan class="d2">.</tspan><tspan class="d3">.</tspan>
  </text>
  <text x="340" y="290" class="dim small">3072 MiB</text>
  <rect class="bar-bg" x="425" y="280" width="270" height="12" rx="2"/>
  <rect x="425" y="280" height="12" rx="2" fill="url(#barFill)" width="0">
    <animate attributeName="width" values="0;270;270" keyTimes="0;0.95;1" dur="25s" repeatCount="indefinite"/>
  </rect>
  <text x="780" y="290" class="text small" text-anchor="end">epoch 247/300</text>

  <!-- Process 2: mlops_pipeline.py -->
  <text x="20"  y="315" class="dim small">2048</text>
  <text x="60"  y="315" class="text">mlops_pipeline.py</text>
  <text x="340" y="315" class="dim small">2048 MiB</text>
  <rect class="bar-bg" x="425" y="305" width="270" height="12" rx="2"/>
  <rect x="425" y="305" height="12" rx="2" fill="url(#okFill)" width="190">
    <animate attributeName="width" values="190;245;205;230;190" dur="9s" repeatCount="indefinite"/>
  </rect>
  <text x="780" y="315" class="ok small" text-anchor="end">healthy ✓</text>

  <!-- Process 3: inference_optim.py [learning] -->
  <text x="20"  y="340" class="dim small">4096</text>
  <text x="60"  y="340" class="text">inference_optim.py</text>
  <text x="245" y="340" class="cool small">[learning]</text>
  <text x="340" y="340" class="dim small">2048 MiB</text>
  <rect class="bar-bg" x="425" y="330" width="270" height="12" rx="2"/>
  <rect x="425" y="330" height="12" rx="2" fill="url(#barFill)" width="100">
    <animate attributeName="width" values="80;130;105;90;115;80" dur="11s" repeatCount="indefinite"/>
  </rect>
  <text x="780" y="340" class="warn small" text-anchor="end">studying...</text>

  <!-- Process 4: open_to_collab -->
  <text x="20"  y="365" class="dim small">8192</text>
  <text x="60"  y="365" class="text">open_to_collab</text>
  <text x="245" y="365" class="cool small">[ai @ scale]</text>
  <text x="340" y="365" class="dim small">2048 MiB</text>
  <rect class="bar-bg" x="425" y="355" width="270" height="12" rx="2"/>
  <rect x="425" y="355" height="12" rx="2" fill="url(#okFill)" width="270"/>
  <text x="780" y="365" class="accent small" text-anchor="end">always-on ∞</text>

  <!-- ====== FOOTER PROMPT ====== -->
  <line class="grid" x1="20" y1="395" x2="780" y2="395"/>
  <text x="20" y="425" class="accent">$</text>
  <text x="36" y="425" class="text">tail -f ~/career.log</text>
  <rect class="cursor" x="195" y="413" width="9" height="14"/>
  <text x="780" y="425" class="dim small" text-anchor="end">uptime: ∞ · pid 1 · ready for work</text>
</svg>
